<svg xmlns="http://www.w3.org/2000/svg" width="610" height="275.5" viewBox="0 0 610 275.5">
  <g id="Grupo_1109569" data-name="Grupo 1109569" transform="translate(-495 -832)">
    <path id="Trazado_905125" data-name="Trazado 905125" d="M7,0H172a7,7,0,0,1,7,7V30a7,7,0,0,1-7,7H7a7,7,0,0,1-7-7V7A7,7,0,0,1,7,0Z" transform="translate(622 832)" fill="#a854f3"/>
    <path id="Trazado_905126" data-name="Trazado 905126" d="M59.5,12.547H55.8L54.668,15H52.285L57.824,3.625H60.16L62.277,15H59.895Zm-2.859-1.789H59.2l-.648-4.016L58.5,6.734Zm10.328,2.656a1.467,1.467,0,0,0,.988-.359,1.519,1.519,0,0,0,.512-.945h2.07l.016.047a3.149,3.149,0,0,1-1.27,2.168,4.116,4.116,0,0,1-2.574.84,3.092,3.092,0,0,1-2.684-1.215,3.985,3.985,0,0,1-.6-3.051l.031-.234a5.322,5.322,0,0,1,1.477-3.1A4.185,4.185,0,0,1,68,6.391a3.036,3.036,0,0,1,2.332.9,2.6,2.6,0,0,1,.59,2.344l-.016.039H68.824a1.538,1.538,0,0,0-.176-1.1,1,1,0,0,0-.9-.426,1.555,1.555,0,0,0-1.348.719,4.247,4.247,0,0,0-.66,1.8l-.031.234a3.629,3.629,0,0,0,.086,1.84A1.119,1.119,0,0,0,66.965,13.414Zm8.8-8.937-.312,2.07h1.43l-.234,1.6H75.207l-.641,4.3a.9.9,0,0,0,.094.715.644.644,0,0,0,.516.2,2.371,2.371,0,0,0,.316-.02,2.468,2.468,0,0,0,.316-.066l-.062,1.648a5.087,5.087,0,0,1-.691.176,4.116,4.116,0,0,1-.715.059,2.108,2.108,0,0,1-1.7-.656,2.509,2.509,0,0,1-.348-2.047l.641-4.312H71.707l.234-1.6h1.234l.313-2.07ZM79.418,15H77.137L78.4,6.547h2.281Zm1.57-10.477H78.707l.258-1.711h2.281Zm3.828,7.328.031.773.047.008.273-.781,2.188-5.3h2.383L85.6,15h-2.18L81.809,6.547h2.383ZM91.863,15H89.582l1.266-8.453h2.281Zm1.57-10.477H91.152l.258-1.711h2.281Zm4.617-.047-.312,2.07h1.43l-.234,1.6H97.5l-.641,4.3a.9.9,0,0,0,.094.715.644.644,0,0,0,.516.2,2.371,2.371,0,0,0,.316-.02,2.468,2.468,0,0,0,.316-.066l-.062,1.648a5.087,5.087,0,0,1-.691.176,4.116,4.116,0,0,1-.715.059,2.108,2.108,0,0,1-1.7-.656,2.509,2.509,0,0,1-.348-2.047l.641-4.312H94l.234-1.6h1.234l.313-2.07Zm4.836,6.977.016.461.047.008,2.43-5.375h2.453l-4.883,9.719a5.432,5.432,0,0,1-1.207,1.527,2.871,2.871,0,0,1-1.949.621,2.773,2.773,0,0,1-.52-.047q-.246-.047-.582-.133l.516-1.664q.094.016.211.031a1.611,1.611,0,0,0,.211.016,1.4,1.4,0,0,0,.9-.285,2.344,2.344,0,0,0,.586-.684l.359-.648L99.738,6.547h2.453Z" transform="translate(631 841)" fill="#fff"/>
    <path id="Trazado_905121" data-name="Trazado 905121" d="M7,0H110.667a7,7,0,0,1,7,7V31.5a7,7,0,0,1-7,7H7a7,7,0,0,1-7-7V7A7,7,0,0,1,7,0Z" transform="translate(790 911)" fill="#8722e2"/>
    <path id="Trazado_905108" data-name="Trazado 905108" d="M7,0H77.333a7,7,0,0,1,7,7V31.5a7,7,0,0,1-7,7H7a7,7,0,0,1-7-7V7A7,7,0,0,1,7,0Z" transform="translate(810 983)" fill="#3a1d71"/>
    <path id="Trazado_905109" data-name="Trazado 905109" d="M7,0H77.333a7,7,0,0,1,7,7V31.5a7,7,0,0,1-7,7H7a7,7,0,0,1-7-7V7A7,7,0,0,1,7,0Z" transform="translate(495 1069)" fill="#3a1d71"/>
    <path id="Trazado_905101" data-name="Trazado 905101" d="M7,0H77.333a7,7,0,0,1,7,7V31.5a7,7,0,0,1-7,7H7a7,7,0,0,1-7-7V7A7,7,0,0,1,7,0Z" transform="translate(627 1069)" fill="#3a1d71"/>
    <path id="Trazado_905100" data-name="Trazado 905100" d="M7,0H77.333a7,7,0,0,1,7,7V31.5a7,7,0,0,1-7,7H7a7,7,0,0,1-7-7V7A7,7,0,0,1,7,0Z" transform="translate(745.5 1069)" fill="#3a1d71"/>
    <path id="Trazado_905110" data-name="Trazado 905110" d="M7,0H77.333a7,7,0,0,1,7,7V31.5a7,7,0,0,1-7,7H7a7,7,0,0,1-7-7V7A7,7,0,0,1,7,0Z" transform="translate(1020.667 983)" fill="#3a1d71"/>
    <path id="Trazado_905122" data-name="Trazado 905122" d="M4.316,10.389l.1.82.041.007.349-.827L8.479,3.047H9.935L4.747,13H3.591L1.383,3.047H2.846ZM11.029,13H9.682L10.79,5.6h1.347Zm1.395-9.29H11.077l.205-1.374h1.347Zm3.719,9.434a2.685,2.685,0,0,1-2.3-1.032,3.442,3.442,0,0,1-.523-2.666l.048-.3a4.429,4.429,0,0,1,1.3-2.666,3.4,3.4,0,0,1,2.41-1.012,2.3,2.3,0,0,1,2.058.937,3.365,3.365,0,0,1,.4,2.44l-.1.711H14.652a2.935,2.935,0,0,0,.232,1.856,1.489,1.489,0,0,0,1.415.68,3.655,3.655,0,0,0,1.22-.2,3.2,3.2,0,0,0,.974-.533l.4.875a3.891,3.891,0,0,1-1.142.646A4.5,4.5,0,0,1,16.142,13.144Zm.779-6.617a1.7,1.7,0,0,0-1.227.547,3.116,3.116,0,0,0-.79,1.381l.014.041h3.329l.014-.109a1.974,1.974,0,0,0-.191-1.343A1.234,1.234,0,0,0,16.921,6.526Zm5.8,3.78.027.943.034.007.328-.95L25.3,5.6h1.08l.779,4.7.034,1.06.041.007.376-1.066,1.8-4.7h1.408L27.558,13H26.471l-.786-4.5-.1-1.169-.041-.007L25.1,8.5,22.992,13H21.9L20.866,5.6h1.4ZM38.564,11.66a3.955,3.955,0,0,1-1.388,1.019,5.308,5.308,0,0,1-2.345.465,3.312,3.312,0,0,1-2.649-1.152,3.5,3.5,0,0,1-.714-2.943L31.776,7A4.794,4.794,0,0,1,33.3,4.011,4.33,4.33,0,0,1,36.281,2.9a3.258,3.258,0,0,1,2.458.9,2.448,2.448,0,0,1,.632,2.242l-.021.041H38.058A1.854,1.854,0,0,0,37.7,4.554a1.953,1.953,0,0,0-1.583-.591,2.662,2.662,0,0,0-1.945.861,3.764,3.764,0,0,0-1.042,2.16l-.308,2.064a2.881,2.881,0,0,0,.4,2.208,2.055,2.055,0,0,0,1.771.834,3.761,3.761,0,0,0,1.418-.236,2.485,2.485,0,0,0,.865-.537l.335-2.242H35.351l.157-1.053h3.6Zm6.371-4.867-.684-.041a1.663,1.663,0,0,0-.93.263,2.178,2.178,0,0,0-.684.742L41.852,13H40.505l1.107-7.4h1.2l-.027,1.046a3.108,3.108,0,0,1,.9-.872,2.086,2.086,0,0,1,1.114-.311,1.683,1.683,0,0,1,.284.024,1.564,1.564,0,0,1,.222.051Zm.588,2.44A4.713,4.713,0,0,1,46.812,6.5a3.5,3.5,0,0,1,2.574-1.032,2.574,2.574,0,0,1,2.239,1.07,3.587,3.587,0,0,1,.523,2.7l-.027.15a4.721,4.721,0,0,1-1.292,2.738,3.515,3.515,0,0,1-2.577,1.022,2.577,2.577,0,0,1-2.239-1.066A3.555,3.555,0,0,1,45.5,9.384Zm1.319.15a3.221,3.221,0,0,0,.2,1.962,1.4,1.4,0,0,0,1.367.745,1.935,1.935,0,0,0,1.555-.776,3.939,3.939,0,0,0,.81-1.931l.027-.15a3.222,3.222,0,0,0-.208-1.955,1.4,1.4,0,0,0-1.364-.752,1.935,1.935,0,0,0-1.562.783,3.871,3.871,0,0,0-.8,1.924ZM58.012,13l.075-1.06a3.015,3.015,0,0,1-1.029.9,2.808,2.808,0,0,1-1.316.308,2.039,2.039,0,0,1-1.75-.783,3.187,3.187,0,0,1-.335-2.4L54.307,5.6h1.347L55,9.979a2.593,2.593,0,0,0,.1,1.647,1.147,1.147,0,0,0,1.032.424A2.28,2.28,0,0,0,58.2,10.888L58.983,5.6H60.33L59.222,13ZM68,9.582a4.728,4.728,0,0,1-1.152,2.611,2.979,2.979,0,0,1-2.259.95A2.54,2.54,0,0,1,63.44,12.9a1.958,1.958,0,0,1-.786-.714l-.547,3.657H60.76L62.292,5.6h1.032l.068.957a3.06,3.06,0,0,1,1.025-.813,2.951,2.951,0,0,1,1.3-.28,2.075,2.075,0,0,1,1.941,1.1,4.446,4.446,0,0,1,.362,2.868Zm-1.326-.144A3.611,3.611,0,0,0,66.5,7.347a1.363,1.363,0,0,0-1.347-.786,1.95,1.95,0,0,0-1.015.27,2.623,2.623,0,0,0-.79.735l-.533,3.555a1.592,1.592,0,0,0,.561.714,1.656,1.656,0,0,0,.964.256,1.957,1.957,0,0,0,1.535-.708,3.444,3.444,0,0,0,.783-1.8Z" transform="translate(814 922)" fill="#00ffdf"/>
    <path id="Trazado_905114" data-name="Trazado 905114" d="M6.708,10.389l.1.82.041.007.349-.827,3.671-7.342h1.456L7.138,13H5.983L3.775,3.047H5.238ZM13.421,13H12.074l1.107-7.4h1.347Zm1.395-9.29H13.469l.205-1.374H15.02Zm3.719,9.434a2.685,2.685,0,0,1-2.3-1.032,3.442,3.442,0,0,1-.523-2.666l.048-.3a4.429,4.429,0,0,1,1.3-2.666,3.4,3.4,0,0,1,2.41-1.012,2.3,2.3,0,0,1,2.058.937,3.365,3.365,0,0,1,.4,2.44l-.1.711H17.044a2.935,2.935,0,0,0,.232,1.856,1.489,1.489,0,0,0,1.415.68,3.655,3.655,0,0,0,1.22-.2,3.2,3.2,0,0,0,.974-.533l.4.875a3.891,3.891,0,0,1-1.142.646A4.5,4.5,0,0,1,18.534,13.144Zm.779-6.617a1.7,1.7,0,0,0-1.227.547,3.116,3.116,0,0,0-.79,1.381l.014.041h3.329l.014-.109a1.974,1.974,0,0,0-.191-1.343A1.234,1.234,0,0,0,19.313,6.526Zm5.8,3.78.027.943.034.007.328-.95,2.181-4.7h1.08l.779,4.7.034,1.06.041.007L30,10.307l1.8-4.7H33.2L29.95,13H28.863l-.786-4.5-.1-1.169-.041-.007L27.5,8.5,25.384,13H24.3L23.258,5.6h1.4Z" transform="translate(834 994)" fill="#fff"/>
    <path id="Trazado_905112" data-name="Trazado 905112" d="M6.708,10.389l.1.82.041.007.349-.827,3.671-7.342h1.456L7.138,13H5.983L3.775,3.047H5.238ZM13.421,13H12.074l1.107-7.4h1.347Zm1.395-9.29H13.469l.205-1.374H15.02Zm3.719,9.434a2.685,2.685,0,0,1-2.3-1.032,3.442,3.442,0,0,1-.523-2.666l.048-.3a4.429,4.429,0,0,1,1.3-2.666,3.4,3.4,0,0,1,2.41-1.012,2.3,2.3,0,0,1,2.058.937,3.365,3.365,0,0,1,.4,2.44l-.1.711H17.044a2.935,2.935,0,0,0,.232,1.856,1.489,1.489,0,0,0,1.415.68,3.655,3.655,0,0,0,1.22-.2,3.2,3.2,0,0,0,.974-.533l.4.875a3.891,3.891,0,0,1-1.142.646A4.5,4.5,0,0,1,18.534,13.144Zm.779-6.617a1.7,1.7,0,0,0-1.227.547,3.116,3.116,0,0,0-.79,1.381l.014.041h3.329l.014-.109a1.974,1.974,0,0,0-.191-1.343A1.234,1.234,0,0,0,19.313,6.526Zm5.8,3.78.027.943.034.007.328-.95,2.181-4.7h1.08l.779,4.7.034,1.06.041.007L30,10.307l1.8-4.7H33.2L29.95,13H28.863l-.786-4.5-.1-1.169-.041-.007L27.5,8.5,25.384,13H24.3L23.258,5.6h1.4Z" transform="translate(519 1080)" fill="#fff"/>
    <path id="Trazado_905102" data-name="Trazado 905102" d="M6.708,10.389l.1.82.041.007.349-.827,3.671-7.342h1.456L7.138,13H5.983L3.775,3.047H5.238ZM13.421,13H12.074l1.107-7.4h1.347Zm1.395-9.29H13.469l.205-1.374H15.02Zm3.719,9.434a2.685,2.685,0,0,1-2.3-1.032,3.442,3.442,0,0,1-.523-2.666l.048-.3a4.429,4.429,0,0,1,1.3-2.666,3.4,3.4,0,0,1,2.41-1.012,2.3,2.3,0,0,1,2.058.937,3.365,3.365,0,0,1,.4,2.44l-.1.711H17.044a2.935,2.935,0,0,0,.232,1.856,1.489,1.489,0,0,0,1.415.68,3.655,3.655,0,0,0,1.22-.2,3.2,3.2,0,0,0,.974-.533l.4.875a3.891,3.891,0,0,1-1.142.646A4.5,4.5,0,0,1,18.534,13.144Zm.779-6.617a1.7,1.7,0,0,0-1.227.547,3.116,3.116,0,0,0-.79,1.381l.014.041h3.329l.014-.109a1.974,1.974,0,0,0-.191-1.343A1.234,1.234,0,0,0,19.313,6.526Zm5.8,3.78.027.943.034.007.328-.95,2.181-4.7h1.08l.779,4.7.034,1.06.041.007L30,10.307l1.8-4.7H33.2L29.95,13H28.863l-.786-4.5-.1-1.169-.041-.007L27.5,8.5,25.384,13H24.3L23.258,5.6h1.4Z" transform="translate(651 1080)" fill="#fff"/>
    <path id="Trazado_905103" data-name="Trazado 905103" d="M6.708,10.389l.1.82.041.007.349-.827,3.671-7.342h1.456L7.138,13H5.983L3.775,3.047H5.238ZM13.421,13H12.074l1.107-7.4h1.347Zm1.395-9.29H13.469l.205-1.374H15.02Zm3.719,9.434a2.685,2.685,0,0,1-2.3-1.032,3.442,3.442,0,0,1-.523-2.666l.048-.3a4.429,4.429,0,0,1,1.3-2.666,3.4,3.4,0,0,1,2.41-1.012,2.3,2.3,0,0,1,2.058.937,3.365,3.365,0,0,1,.4,2.44l-.1.711H17.044a2.935,2.935,0,0,0,.232,1.856,1.489,1.489,0,0,0,1.415.68,3.655,3.655,0,0,0,1.22-.2,3.2,3.2,0,0,0,.974-.533l.4.875a3.891,3.891,0,0,1-1.142.646A4.5,4.5,0,0,1,18.534,13.144Zm.779-6.617a1.7,1.7,0,0,0-1.227.547,3.116,3.116,0,0,0-.79,1.381l.014.041h3.329l.014-.109a1.974,1.974,0,0,0-.191-1.343A1.234,1.234,0,0,0,19.313,6.526Zm5.8,3.78.027.943.034.007.328-.95,2.181-4.7h1.08l.779,4.7.034,1.06.041.007L30,10.307l1.8-4.7H33.2L29.95,13H28.863l-.786-4.5-.1-1.169-.041-.007L27.5,8.5,25.384,13H24.3L23.258,5.6h1.4Z" transform="translate(769.5 1080)" fill="#fff"/>
    <path id="Trazado_905115" data-name="Trazado 905115" d="M6.708,10.389l.1.82.041.007.349-.827,3.671-7.342h1.456L7.138,13H5.983L3.775,3.047H5.238ZM13.421,13H12.074l1.107-7.4h1.347Zm1.395-9.29H13.469l.205-1.374H15.02Zm3.719,9.434a2.685,2.685,0,0,1-2.3-1.032,3.442,3.442,0,0,1-.523-2.666l.048-.3a4.429,4.429,0,0,1,1.3-2.666,3.4,3.4,0,0,1,2.41-1.012,2.3,2.3,0,0,1,2.058.937,3.365,3.365,0,0,1,.4,2.44l-.1.711H17.044a2.935,2.935,0,0,0,.232,1.856,1.489,1.489,0,0,0,1.415.68,3.655,3.655,0,0,0,1.22-.2,3.2,3.2,0,0,0,.974-.533l.4.875a3.891,3.891,0,0,1-1.142.646A4.5,4.5,0,0,1,18.534,13.144Zm.779-6.617a1.7,1.7,0,0,0-1.227.547,3.116,3.116,0,0,0-.79,1.381l.014.041h3.329l.014-.109a1.974,1.974,0,0,0-.191-1.343A1.234,1.234,0,0,0,19.313,6.526Zm5.8,3.78.027.943.034.007.328-.95,2.181-4.7h1.08l.779,4.7.034,1.06.041.007L30,10.307l1.8-4.7H33.2L29.95,13H28.863l-.786-4.5-.1-1.169-.041-.007L27.5,8.5,25.384,13H24.3L23.258,5.6h1.4Z" transform="translate(1044.667 994)" fill="#fff"/>
    <path id="Trazado_905124" data-name="Trazado 905124" d="M0,0V30" transform="translate(774 869.5)" fill="none" stroke="#8722e2" stroke-linecap="round" stroke-width="2"/>
    <path id="Trazado_905119" data-name="Trazado 905119" d="M393.667,0H0" transform="translate(669.5 963.5)" fill="none" stroke="#8722e2" stroke-linecap="round" stroke-width="2"/>
    <path id="Trazado_905105" data-name="Trazado 905105" d="M248.333,0H0" transform="translate(544.5 1047.5)" fill="none" stroke="#8722e2" stroke-linecap="round" stroke-width="2"/>
    <path id="Trazado_905120" data-name="Trazado 905120" d="M0,0V14" transform="translate(848.5 949.5)" fill="none" stroke="#8722e2" stroke-linecap="round" stroke-width="2"/>
    <path id="Trazado_905117" data-name="Trazado 905117" d="M0,0V20" transform="translate(848.833 963.5)" fill="none" stroke="#8722e2" stroke-linecap="round" stroke-width="2"/>
    <path id="Trazado_905113" data-name="Trazado 905113" d="M0,0V20" transform="translate(544.5 1049)" fill="none" stroke="#8722e2" stroke-linecap="round" stroke-width="2"/>
    <path id="Trazado_905106" data-name="Trazado 905106" d="M0,0V20" transform="translate(669.167 1049)" fill="none" stroke="#8722e2" stroke-linecap="round" stroke-width="2"/>
    <path id="Trazado_905104" data-name="Trazado 905104" d="M0,0V20" transform="translate(792.834 1049)" fill="none" stroke="#8722e2" stroke-linecap="round" stroke-width="2"/>
    <path id="Trazado_905118" data-name="Trazado 905118" d="M0,0V20" transform="translate(1063.167 963.5)" fill="none" stroke="#8722e2" stroke-linecap="round" stroke-width="2"/>
    <path id="Trazado_905107" data-name="Trazado 905107" d="M0,0V84" transform="translate(669.167 963.5)" fill="none" stroke="#8722e2" stroke-linecap="round" stroke-width="2"/>
    <path id="Trazado_905111" data-name="Trazado 905111" d="M7,0H110.667a7,7,0,0,1,7,7V31.5a7,7,0,0,1-7,7H7a7,7,0,0,1-7-7V7A7,7,0,0,1,7,0Z" transform="translate(608 983)" fill="#8722e2"/>
    <path id="Trazado_905116" data-name="Trazado 905116" d="M4.316,10.389l.1.82.041.007.349-.827L8.479,3.047H9.935L4.747,13H3.591L1.383,3.047H2.846ZM11.029,13H9.682L10.79,5.6h1.347Zm1.395-9.29H11.077l.205-1.374h1.347Zm3.719,9.434a2.685,2.685,0,0,1-2.3-1.032,3.442,3.442,0,0,1-.523-2.666l.048-.3a4.429,4.429,0,0,1,1.3-2.666,3.4,3.4,0,0,1,2.41-1.012,2.3,2.3,0,0,1,2.058.937,3.365,3.365,0,0,1,.4,2.44l-.1.711H14.652a2.935,2.935,0,0,0,.232,1.856,1.489,1.489,0,0,0,1.415.68,3.655,3.655,0,0,0,1.22-.2,3.2,3.2,0,0,0,.974-.533l.4.875a3.891,3.891,0,0,1-1.142.646A4.5,4.5,0,0,1,16.142,13.144Zm.779-6.617a1.7,1.7,0,0,0-1.227.547,3.116,3.116,0,0,0-.79,1.381l.014.041h3.329l.014-.109a1.974,1.974,0,0,0-.191-1.343A1.234,1.234,0,0,0,16.921,6.526Zm5.8,3.78.027.943.034.007.328-.95L25.3,5.6h1.08l.779,4.7.034,1.06.041.007.376-1.066,1.8-4.7h1.408L27.558,13H26.471l-.786-4.5-.1-1.169-.041-.007L25.1,8.5,22.992,13H21.9L20.866,5.6h1.4ZM38.564,11.66a3.955,3.955,0,0,1-1.388,1.019,5.308,5.308,0,0,1-2.345.465,3.312,3.312,0,0,1-2.649-1.152,3.5,3.5,0,0,1-.714-2.943L31.776,7A4.794,4.794,0,0,1,33.3,4.011,4.33,4.33,0,0,1,36.281,2.9a3.258,3.258,0,0,1,2.458.9,2.448,2.448,0,0,1,.632,2.242l-.021.041H38.058A1.854,1.854,0,0,0,37.7,4.554a1.953,1.953,0,0,0-1.583-.591,2.662,2.662,0,0,0-1.945.861,3.764,3.764,0,0,0-1.042,2.16l-.308,2.064a2.881,2.881,0,0,0,.4,2.208,2.055,2.055,0,0,0,1.771.834,3.761,3.761,0,0,0,1.418-.236,2.485,2.485,0,0,0,.865-.537l.335-2.242H35.351l.157-1.053h3.6Zm6.371-4.867-.684-.041a1.663,1.663,0,0,0-.93.263,2.178,2.178,0,0,0-.684.742L41.852,13H40.505l1.107-7.4h1.2l-.027,1.046a3.108,3.108,0,0,1,.9-.872,2.086,2.086,0,0,1,1.114-.311,1.683,1.683,0,0,1,.284.024,1.564,1.564,0,0,1,.222.051Zm.588,2.44A4.713,4.713,0,0,1,46.812,6.5a3.5,3.5,0,0,1,2.574-1.032,2.574,2.574,0,0,1,2.239,1.07,3.587,3.587,0,0,1,.523,2.7l-.027.15a4.721,4.721,0,0,1-1.292,2.738,3.515,3.515,0,0,1-2.577,1.022,2.577,2.577,0,0,1-2.239-1.066A3.555,3.555,0,0,1,45.5,9.384Zm1.319.15a3.221,3.221,0,0,0,.2,1.962,1.4,1.4,0,0,0,1.367.745,1.935,1.935,0,0,0,1.555-.776,3.939,3.939,0,0,0,.81-1.931l.027-.15a3.222,3.222,0,0,0-.208-1.955,1.4,1.4,0,0,0-1.364-.752,1.935,1.935,0,0,0-1.562.783,3.871,3.871,0,0,0-.8,1.924ZM58.012,13l.075-1.06a3.015,3.015,0,0,1-1.029.9,2.808,2.808,0,0,1-1.316.308,2.039,2.039,0,0,1-1.75-.783,3.187,3.187,0,0,1-.335-2.4L54.307,5.6h1.347L55,9.979a2.593,2.593,0,0,0,.1,1.647,1.147,1.147,0,0,0,1.032.424A2.28,2.28,0,0,0,58.2,10.888L58.983,5.6H60.33L59.222,13ZM68,9.582a4.728,4.728,0,0,1-1.152,2.611,2.979,2.979,0,0,1-2.259.95A2.54,2.54,0,0,1,63.44,12.9a1.958,1.958,0,0,1-.786-.714l-.547,3.657H60.76L62.292,5.6h1.032l.068.957a3.06,3.06,0,0,1,1.025-.813,2.951,2.951,0,0,1,1.3-.28,2.075,2.075,0,0,1,1.941,1.1,4.446,4.446,0,0,1,.362,2.868Zm-1.326-.144A3.611,3.611,0,0,0,66.5,7.347a1.363,1.363,0,0,0-1.347-.786,1.95,1.95,0,0,0-1.015.27,2.623,2.623,0,0,0-.79.735l-.533,3.555a1.592,1.592,0,0,0,.561.714,1.656,1.656,0,0,0,.964.256,1.957,1.957,0,0,0,1.535-.708,3.444,3.444,0,0,0,.783-1.8Z" transform="translate(632 994)" fill="#00ffdf"/>
    <path id="Trazado_905123" data-name="Trazado 905123" d="M4.5,0,9,8H0Z" transform="translate(778.5 908) rotate(180)" fill="#8722e2"/>
  </g>
</svg>
