<svg xmlns="http://www.w3.org/2000/svg" width="610" height="395" viewBox="0 0 610 395">
  <g id="Grupo_1109571" data-name="Grupo 1109571" transform="translate(-495 -1139)">
    <path id="Trazado_905103" data-name="Trazado 905103" d="M9,0H154a9,9,0,0,1,9,9V64a9,9,0,0,1-9,9H9a9,9,0,0,1-9-9V9A9,9,0,0,1,9,0Z" transform="translate(719 1325)" fill="#f2ae0f"/>
    <path id="Trazado_905111" data-name="Trazado 905111" d="M-49.742-2.93h-4.281L-55.039,0h-1.57l4.1-11.375h1.32L-47.172,0h-1.57Zm-3.836-1.289h3.4L-51.836-9.1h-.047Zm9.242-4.234.109,1.258a3.069,3.069,0,0,1,1.059-1.043,2.824,2.824,0,0,1,1.449-.371,2.759,2.759,0,0,1,2.117.8,3.515,3.515,0,0,1,.75,2.473V0h-1.539V-5.3a2.287,2.287,0,0,0-.441-1.586,1.768,1.768,0,0,0-1.348-.469,2.386,2.386,0,0,0-1.207.285,2.072,2.072,0,0,0-.785.8V0h-1.539V-8.453Zm7.367,4.383A5.641,5.641,0,0,1-36.1-7.359a2.807,2.807,0,0,1,2.441-1.25,3.027,3.027,0,0,1,1.316.273,2.7,2.7,0,0,1,.98.8v-4.648h1.539V0H-31l-.234-1.07a2.743,2.743,0,0,1-1.023.922,3.058,3.058,0,0,1-1.414.313A2.9,2.9,0,0,1-36.094-.957a4.659,4.659,0,0,1-.875-2.949Zm1.539.164a3.588,3.588,0,0,0,.523,2.051,1.828,1.828,0,0,0,1.625.77A2.039,2.039,0,0,0-32.125-1.4a2.334,2.334,0,0,0,.766-.875V-6.219a2.37,2.37,0,0,0-.77-.832,2.033,2.033,0,0,0-1.137-.309,1.759,1.759,0,0,0-1.637.914A4.718,4.718,0,0,0-35.43-4.07Zm11.906-3.187-.789-.047a1.762,1.762,0,0,0-1.027.289,1.854,1.854,0,0,0-.645.813V0h-1.539V-8.453h1.375L-26-7.219a2.934,2.934,0,0,1,.887-1.023A2.073,2.073,0,0,1-23.9-8.609a1.9,1.9,0,0,1,.328.027,2.175,2.175,0,0,1,.258.059ZM-22.437-4.3a4.654,4.654,0,0,1,1.016-3.09,3.406,3.406,0,0,1,2.758-1.215A3.439,3.439,0,0,1-15.887-7.4,4.639,4.639,0,0,1-14.867-4.3v.172a4.631,4.631,0,0,1-1.016,3.094,3.429,3.429,0,0,1-2.766,1.2,3.436,3.436,0,0,1-2.77-1.207,4.623,4.623,0,0,1-1.02-3.09Zm1.539.172a4.009,4.009,0,0,0,.566,2.219,1.875,1.875,0,0,0,1.684.875,1.87,1.87,0,0,0,1.672-.875,3.988,3.988,0,0,0,.57-2.219V-4.3a3.976,3.976,0,0,0-.574-2.211A1.882,1.882,0,0,0-18.664-7.4a1.856,1.856,0,0,0-1.668.883A4.018,4.018,0,0,0-20.9-4.3ZM-11.32,0h-1.539V-8.453h1.539Zm0-10.617h-1.539v-1.57h1.539ZM-9.3-4.07a5.641,5.641,0,0,1,.871-3.289,2.807,2.807,0,0,1,2.441-1.25,3.027,3.027,0,0,1,1.316.273,2.7,2.7,0,0,1,.98.8v-4.648h1.539V0h-1.18L-3.57-1.07a2.743,2.743,0,0,1-1.023.922A3.058,3.058,0,0,1-6.008.164,2.9,2.9,0,0,1-8.43-.957,4.659,4.659,0,0,1-9.3-3.906Zm1.539.164a3.588,3.588,0,0,0,.523,2.051,1.828,1.828,0,0,0,1.625.77A2.039,2.039,0,0,0-4.461-1.4,2.334,2.334,0,0,0-3.7-2.273V-6.219a2.37,2.37,0,0,0-.77-.832A2.033,2.033,0,0,0-5.6-7.359a1.759,1.759,0,0,0-1.637.914A4.718,4.718,0,0,0-7.766-4.07ZM10.391-2.867a1.711,1.711,0,0,0-.555-1.3,4.62,4.62,0,0,0-1.953-.891A6.5,6.5,0,0,1,5.176-6.32a2.655,2.655,0,0,1-.973-2.1A2.8,2.8,0,0,1,5.25-10.648a4.05,4.05,0,0,1,2.719-.891,3.971,3.971,0,0,1,2.863,1.02,3.088,3.088,0,0,1,1.035,2.379l-.023.047H10.375A2.1,2.1,0,0,0,9.7-9.7a2.431,2.431,0,0,0-1.73-.633A2.37,2.37,0,0,0,6.316-9.8a1.754,1.754,0,0,0-.574,1.359,1.518,1.518,0,0,0,.629,1.238,5.8,5.8,0,0,0,2.043.871,5.8,5.8,0,0,1,2.617,1.313,2.857,2.857,0,0,1,.9,2.141A2.657,2.657,0,0,1,10.848-.672,4.491,4.491,0,0,1,8.023.164a4.8,4.8,0,0,1-2.91-.922A2.81,2.81,0,0,1,3.891-3.227l.016-.047H5.375a1.912,1.912,0,0,0,.813,1.652,3.076,3.076,0,0,0,1.836.582,2.761,2.761,0,0,0,1.73-.492A1.6,1.6,0,0,0,10.391-2.867Zm6.094-.266.273,1.063H16.8l2.078-6.383h1.711L17.039,1.3a4.383,4.383,0,0,1-.918,1.484,2.113,2.113,0,0,1-1.613.633,3.363,3.363,0,0,1-.477-.043q-.289-.043-.445-.082l.156-1.211a2.062,2.062,0,0,1,.277.016q.324.023.41.023a.95.95,0,0,0,.8-.437,4.543,4.543,0,0,0,.523-.969l.367-.883L12.984-8.453H14.7Zm10.375.859a1.026,1.026,0,0,0-.387-.828,3.732,3.732,0,0,0-1.465-.562,6.146,6.146,0,0,1-2.293-.9,1.814,1.814,0,0,1-.8-1.547,2.229,2.229,0,0,1,.879-1.766,3.433,3.433,0,0,1,2.277-.734,3.4,3.4,0,0,1,2.328.781,2.239,2.239,0,0,1,.852,1.82l-.016.047H26.766a1.331,1.331,0,0,0-.48-.992A1.717,1.717,0,0,0,25.07-7.4a1.751,1.751,0,0,0-1.215.367,1.146,1.146,0,0,0-.4.875.927.927,0,0,0,.348.773,3.848,3.848,0,0,0,1.434.5,6.058,6.058,0,0,1,2.359.93,1.872,1.872,0,0,1,.8,1.57,2.226,2.226,0,0,1-.91,1.836,3.754,3.754,0,0,1-2.379.711,3.715,3.715,0,0,1-2.547-.82A2.341,2.341,0,0,1,21.68-2.57l.016-.047h1.469a1.424,1.424,0,0,0,.609,1.2,2.358,2.358,0,0,0,1.336.379,2.1,2.1,0,0,0,1.285-.348A1.063,1.063,0,0,0,26.859-2.273Zm5.594-8.219v2.039h1.6v1.141h-1.6V-2.18a1.149,1.149,0,0,0,.246.836.89.89,0,0,0,.652.242,1.429,1.429,0,0,0,.3-.035,2.2,2.2,0,0,0,.273-.074l.211,1.055a1.36,1.36,0,0,1-.508.23,2.562,2.562,0,0,1-.664.09A1.993,1.993,0,0,1,31.469-.4a2.46,2.46,0,0,1-.555-1.777V-7.312H29.57V-8.453h1.344v-2.039ZM39.2.164A3.576,3.576,0,0,1,36.363-1a4.48,4.48,0,0,1-1.02-3.062v-.344a4.386,4.386,0,0,1,1.051-3.012,3.3,3.3,0,0,1,2.566-1.191A3.067,3.067,0,0,1,41.5-7.555a4.345,4.345,0,0,1,.848,2.8v.813H36.945l-.023.039a3.494,3.494,0,0,0,.563,2.066,1.965,1.965,0,0,0,1.719.793,3.872,3.872,0,0,0,1.371-.223,3.061,3.061,0,0,0,1.012-.613l.6,1a3.7,3.7,0,0,1-1.2.738A4.762,4.762,0,0,1,39.2.164ZM38.961-7.4a1.673,1.673,0,0,0-1.332.621,2.938,2.938,0,0,0-.645,1.59L37-5.148h3.813v-.125A2.462,2.462,0,0,0,40.359-6.8,1.638,1.638,0,0,0,38.961-7.4Zm6.492-1.055.109,1.109a2.871,2.871,0,0,1,1.051-.934,3.158,3.158,0,0,1,1.48-.332,2.615,2.615,0,0,1,1.449.391,2.363,2.363,0,0,1,.91,1.172,3.162,3.162,0,0,1,1.059-1.145,2.769,2.769,0,0,1,1.527-.418,2.531,2.531,0,0,1,2.039.887,4.051,4.051,0,0,1,.75,2.668V0H54.289V-5.07a2.81,2.81,0,0,0-.43-1.77,1.567,1.567,0,0,0-1.281-.52,1.631,1.631,0,0,0-1.277.547,2.381,2.381,0,0,0-.574,1.383V0H49.18V-5.07a2.772,2.772,0,0,0-.441-1.738,1.532,1.532,0,0,0-1.27-.551,2.115,2.115,0,0,0-1.156.289,1.867,1.867,0,0,0-.7.813V0H44.078V-8.453Z" transform="translate(801 1367)" fill="#12263f"/>
    <path id="Trazado_905104" data-name="Trazado 905104" d="M9,0H154a9,9,0,0,1,9,9V64a9,9,0,0,1-9,9H9a9,9,0,0,1-9-9V9A9,9,0,0,1,9,0Z" transform="translate(495 1362)" fill="#760ed3"/>
    <path id="Trazado_905113" data-name="Trazado 905113" d="M-26.738-2.93h-4.289L-32.48,0h-1.57l5.8-11.375h1.32L-24.613,0h-1.57Zm-3.648-1.289h3.4L-27.91-9.1l-.047-.008Zm10.75,3.18a2.076,2.076,0,0,0,1.293-.477,1.8,1.8,0,0,0,.723-1.156h1.391l.016.047A2.885,2.885,0,0,1-17.437-.66a3.838,3.838,0,0,1-2.379.824,2.837,2.837,0,0,1-2.527-1.223,4.112,4.112,0,0,1-.559-3l.047-.328a5.417,5.417,0,0,1,1.422-3.035A3.89,3.89,0,0,1-18.5-8.609a2.769,2.769,0,0,1,2.164.883,2.407,2.407,0,0,1,.57,2.148l-.016.039h-1.406a1.676,1.676,0,0,0-.3-1.332,1.429,1.429,0,0,0-1.2-.527,2.118,2.118,0,0,0-1.766.895,4.517,4.517,0,0,0-.859,2.113l-.047.328a3.852,3.852,0,0,0,.18,2.168A1.514,1.514,0,0,0-19.637-1.039Zm8.57-9.453-.3,2.039h1.6l-.172,1.141h-1.6l-.766,5.133a1.052,1.052,0,0,0,.113.848.793.793,0,0,0,.621.23,1.571,1.571,0,0,0,.3-.035,2.1,2.1,0,0,0,.285-.074l.055,1.055a1.634,1.634,0,0,1-.543.23,2.7,2.7,0,0,1-.676.09,1.735,1.735,0,0,1-1.395-.57,2.153,2.153,0,0,1-.3-1.773l.766-5.133h-1.344l.172-1.141h1.344l.3-2.039ZM-7.723,0H-9.262L-8-8.453h1.539Zm1.594-10.617H-7.668l.234-1.57h1.539ZM-2.16-2.492l.047.594.047.008.234-.6L1-8.453h1.57L-1.8,0H-2.965L-4.848-8.453H-3.27ZM4.355,0H2.816L4.082-8.453H5.621ZM5.949-10.617H4.41l.234-1.57H6.184Zm4.484.125-.3,2.039h1.6l-.172,1.141h-1.6L9.191-2.18a1.052,1.052,0,0,0,.113.848.793.793,0,0,0,.621.23,1.571,1.571,0,0,0,.3-.035,2.1,2.1,0,0,0,.285-.074l.055,1.055a1.634,1.634,0,0,1-.543.23,2.7,2.7,0,0,1-.676.09,1.735,1.735,0,0,1-1.395-.57,2.153,2.153,0,0,1-.3-1.773l.766-5.133H7.074l.172-1.141H8.59l.3-2.039Zm4.734,7.359.117,1.063.047.008,3.031-6.391h1.711L15.059,1.3a5.491,5.491,0,0,1-1.145,1.484,2.434,2.434,0,0,1-1.707.633,3.175,3.175,0,0,1-.461-.043q-.281-.043-.437-.082l.336-1.211a2.066,2.066,0,0,1,.285.016q.309.023.395.023A1.159,1.159,0,0,0,13.2,1.66a5.116,5.116,0,0,0,.668-.949l.508-.883L12.465-8.453h1.719Zm15.5.2H26.379L24.926,0h-1.57l5.8-11.375h1.32L32.793,0h-1.57ZM27.02-4.219h3.4L29.5-9.1l-.047-.008Z" transform="translate(577 1404)" fill="#fff"/>
    <path id="Trazado_905105" data-name="Trazado 905105" d="M9,0H85a9,9,0,0,1,9,9V46a9,9,0,0,1-9,9H9a9,9,0,0,1-9-9V9A9,9,0,0,1,9,0Z" transform="translate(564 1479)" fill="#760ed3"/>
    <path id="Trazado_905114" data-name="Trazado 905114" d="M1.833,0H-.725V-10.564H-3.371v-1.96l5.2-.457Z" transform="translate(605 1512)" fill="#fff"/>
    <path id="Trazado_905106" data-name="Trazado 905106" d="M9,0H85a9,9,0,0,1,9,9V46a9,9,0,0,1-9,9H9a9,9,0,0,1-9-9V9A9,9,0,0,1,9,0Z" transform="translate(753 1479)" fill="#760ed3"/>
    <path id="Trazado_905107" data-name="Trazado 905107" d="M4.452,0H-4.135V-1.679L-.171-6.161A10.018,10.018,0,0,0,1.09-7.932a2.943,2.943,0,0,0,.374-1.332,1.914,1.914,0,0,0-.4-1.266A1.456,1.456,0,0,0-.119-11a1.523,1.523,0,0,0-1.292.606,2.485,2.485,0,0,0-.457,1.538h-2.5l-.018-.053A3.8,3.8,0,0,1-3.256-11.8,4.214,4.214,0,0,1-.119-12.981,4.341,4.341,0,0,1,2.94-11.975a3.5,3.5,0,0,1,1.09,2.7,3.8,3.8,0,0,1-.611,2.1,23.649,23.649,0,0,1-2.1,2.628L-.8-2.013l.018.044H4.452Z" transform="translate(800 1512)" fill="#fff"/>
    <path id="Trazado_905100" data-name="Trazado 905100" d="M9,0H85a9,9,0,0,1,9,9V46a9,9,0,0,1-9,9H9a9,9,0,0,1-9-9V9A9,9,0,0,1,9,0Z" transform="translate(942 1479)" fill="#760ed3"/>
    <path id="Trazado_905101" data-name="Trazado 905101" d="M-.075-7.523A1.775,1.775,0,0,0,1.283-8a1.881,1.881,0,0,0,.444-1.336,1.637,1.637,0,0,0-.466-1.2A1.74,1.74,0,0,0-.04-11a1.7,1.7,0,0,0-1.182.431,1.412,1.412,0,0,0-.479,1.1H-4.179L-4.2-9.527a2.9,2.9,0,0,1,1.16-2.479,4.629,4.629,0,0,1,3-.976,4.907,4.907,0,0,1,3.155.936A3.239,3.239,0,0,1,4.285-9.36a2.783,2.783,0,0,1-.505,1.613A3.453,3.453,0,0,1,2.4-6.592,3.232,3.232,0,0,1,3.942-5.445a3.132,3.132,0,0,1,.545,1.859A3.334,3.334,0,0,1,3.217-.822,5.083,5.083,0,0,1-.04.185,5.073,5.073,0,0,1-3.1-.765,3,3,0,0,1-4.364-3.428l.018-.053h2.5a1.612,1.612,0,0,0,.505,1.208A1.8,1.8,0,0,0-.04-1.784,1.98,1.98,0,0,0,1.384-2.3a1.731,1.731,0,0,0,.545-1.31,1.986,1.986,0,0,0-.51-1.5A2.081,2.081,0,0,0-.075-5.6H-1.49V-7.523Z" transform="translate(989 1512)" fill="#fff"/>
    <path id="Trazado_905108" data-name="Trazado 905108" d="M9,0H154a9,9,0,0,1,9,9V64a9,9,0,0,1-9,9H9a9,9,0,0,1-9-9V9A9,9,0,0,1,9,0Z" transform="translate(942 1362)" fill="#760ed3"/>
    <path id="Trazado_905109" data-name="Trazado 905109" d="M-26.766-2.93h-4.289L-32.508,0h-1.57l5.8-11.375h1.32L-24.641,0h-1.57Zm-3.648-1.289h3.4L-27.937-9.1l-.047-.008Zm10.75,3.18a2.076,2.076,0,0,0,1.293-.477,1.8,1.8,0,0,0,.723-1.156h1.391l.016.047A2.885,2.885,0,0,1-17.465-.66a3.838,3.838,0,0,1-2.379.824,2.837,2.837,0,0,1-2.527-1.223,4.112,4.112,0,0,1-.559-3l.047-.328a5.417,5.417,0,0,1,1.422-3.035,3.89,3.89,0,0,1,2.93-1.184,2.769,2.769,0,0,1,2.164.883,2.407,2.407,0,0,1,.57,2.148l-.016.039h-1.406a1.676,1.676,0,0,0-.3-1.332,1.429,1.429,0,0,0-1.2-.527,2.118,2.118,0,0,0-1.766.895,4.517,4.517,0,0,0-.859,2.113l-.047.328a3.852,3.852,0,0,0,.18,2.168A1.514,1.514,0,0,0-19.664-1.039Zm8.57-9.453-.3,2.039h1.6l-.172,1.141h-1.6l-.766,5.133a1.052,1.052,0,0,0,.113.848.793.793,0,0,0,.621.23,1.571,1.571,0,0,0,.3-.035,2.1,2.1,0,0,0,.285-.074l.055,1.055a1.634,1.634,0,0,1-.543.23,2.7,2.7,0,0,1-.676.09,1.735,1.735,0,0,1-1.395-.57,2.153,2.153,0,0,1-.3-1.773l.766-5.133h-1.344l.172-1.141h1.344l.3-2.039ZM-7.75,0H-9.289l1.266-8.453h1.539Zm1.594-10.617H-7.7l.234-1.57h1.539Zm3.969,8.125.047.594.047.008.234-.6L.977-8.453h1.57L-1.828,0H-2.992L-4.875-8.453H-3.3ZM4.328,0H2.789L4.055-8.453H5.594ZM5.922-10.617H4.383l.234-1.57H6.156Zm4.484.125-.3,2.039h1.6l-.172,1.141H9.93L9.164-2.18a1.052,1.052,0,0,0,.113.848A.793.793,0,0,0,9.9-1.1a1.571,1.571,0,0,0,.3-.035,2.1,2.1,0,0,0,.285-.074l.055,1.055A1.634,1.634,0,0,1,10,.074a2.7,2.7,0,0,1-.676.09,1.735,1.735,0,0,1-1.395-.57,2.153,2.153,0,0,1-.3-1.773l.766-5.133H7.047l.172-1.141H8.563l.3-2.039Zm4.734,7.359.117,1.063.047.008,3.031-6.391h1.711L15.031,1.3a5.491,5.491,0,0,1-1.145,1.484,2.434,2.434,0,0,1-1.707.633,3.175,3.175,0,0,1-.461-.043q-.281-.043-.437-.082l.336-1.211a2.066,2.066,0,0,1,.285.016q.309.023.395.023a1.159,1.159,0,0,0,.871-.457,5.116,5.116,0,0,0,.668-.949l.508-.883L12.438-8.453h1.719ZM24.32,0l1.7-11.375h3.711a3.991,3.991,0,0,1,2.637.777,2.344,2.344,0,0,1,.7,2.3,2.5,2.5,0,0,1-.648,1.336,3.366,3.366,0,0,1-1.328.875,2.214,2.214,0,0,1,1.613.973,2.676,2.676,0,0,1,.371,1.9A3.45,3.45,0,0,1,31.711-.793,4.868,4.868,0,0,1,28.828,0Zm2.336-5.336L26.039-1.2h2.969a2.7,2.7,0,0,0,1.7-.523,2.175,2.175,0,0,0,.82-1.469,1.822,1.822,0,0,0-.363-1.543,2.008,2.008,0,0,0-1.512-.6H26.656Zm.18-1.2h2.5a2.33,2.33,0,0,0,1.453-.477,1.941,1.941,0,0,0,.75-1.312,1.452,1.452,0,0,0-.367-1.395,2.435,2.435,0,0,0-1.617-.441H27.383Z" transform="translate(1024 1404)" fill="#fff"/>
    <path id="Trazado_904548" data-name="Trazado 904548" d="M-5492,19192s122-142.666,177-114.666,91,148,91,148" transform="translate(6000 -17913)" fill="none" stroke="#8722e2" stroke-width="2" stroke-dasharray="5"/>
    <path id="Trazado_905121" data-name="Trazado 905121" d="M9,0H154a9,9,0,0,1,9,9V64a9,9,0,0,1-9,9H9a9,9,0,0,1-9-9V9A9,9,0,0,1,9,0Z" transform="translate(627 1139)" fill="#3a1d71"/>
    <path id="Trazado_905123" data-name="Trazado 905123" d="M-18.527,0h-1.547l1.7-11.375h1.547Zm5.18-7.242a3.653,3.653,0,0,1,1.207-1.012,3.241,3.241,0,0,1,1.5-.355A2.384,2.384,0,0,1-8.664-7.8a3.111,3.111,0,0,1,.4,2.465L-9.059,0H-10.6l.8-5.3A2.11,2.11,0,0,0-10-6.91a1.585,1.585,0,0,0-1.289-.449,2.518,2.518,0,0,0-1.234.3,2.729,2.729,0,0,0-.922.832L-14.379,0h-1.539l1.266-8.453h1.375Zm10.234-3.25-.3,2.039h1.6l-.172,1.141h-1.6L-4.355-2.18a1.052,1.052,0,0,0,.113.848.793.793,0,0,0,.621.23,1.571,1.571,0,0,0,.3-.035,2.1,2.1,0,0,0,.285-.074L-2.98-.156a1.634,1.634,0,0,1-.543.23A2.7,2.7,0,0,1-4.2.164a1.735,1.735,0,0,1-1.395-.57,2.153,2.153,0,0,1-.3-1.773l.766-5.133H-6.473L-6.3-8.453h1.344l.3-2.039ZM2.043.164A3.069,3.069,0,0,1-.586-1.016a3.934,3.934,0,0,1-.6-3.047l.055-.344A5.061,5.061,0,0,1,.359-7.453,3.89,3.89,0,0,1,3.113-8.609a2.624,2.624,0,0,1,2.352,1.07A3.846,3.846,0,0,1,5.926-4.75l-.117.813H.34A3.355,3.355,0,0,0,.605-1.816a1.7,1.7,0,0,0,1.617.777,4.177,4.177,0,0,0,1.395-.227A3.661,3.661,0,0,0,4.73-1.875l.453,1a4.447,4.447,0,0,1-1.3.738A5.139,5.139,0,0,1,2.043.164ZM2.934-7.4a1.948,1.948,0,0,0-1.4.625A3.561,3.561,0,0,0,.629-5.2l.016.047h3.8l.016-.125a2.257,2.257,0,0,0-.219-1.535A1.41,1.41,0,0,0,2.934-7.4Zm6.578.156a3.653,3.653,0,0,1,1.207-1.012,3.241,3.241,0,0,1,1.5-.355A2.384,2.384,0,0,1,14.2-7.8a3.111,3.111,0,0,1,.4,2.465L13.8,0H12.262l.8-5.3a2.11,2.11,0,0,0-.2-1.605,1.585,1.585,0,0,0-1.289-.449,2.518,2.518,0,0,0-1.234.3,2.729,2.729,0,0,0-.922.832L8.48,0H6.941L8.207-8.453H9.582Zm10.234-3.25-.3,2.039h1.6l-.172,1.141h-1.6L18.5-2.18a1.052,1.052,0,0,0,.113.848.793.793,0,0,0,.621.23,1.571,1.571,0,0,0,.3-.035,2.1,2.1,0,0,0,.285-.074l.055,1.055a1.634,1.634,0,0,1-.543.23,2.7,2.7,0,0,1-.676.09,1.735,1.735,0,0,1-1.395-.57,2.153,2.153,0,0,1-.3-1.773l.766-5.133H16.387l.172-1.141H17.9l.3-2.039Z" transform="translate(709 1181)" fill="#fff"/>
    <path id="Trazado_905115" data-name="Trazado 905115" d="M9,0H154a9,9,0,0,1,9,9V64a9,9,0,0,1-9,9H9a9,9,0,0,1-9-9V9A9,9,0,0,1,9,0Z" transform="translate(495 1259)" fill="#3a1d71"/>
    <path id="Trazado_905116" data-name="Trazado 905116" d="M-42.18-2.609a1.6,1.6,0,0,0-.4-1.414,5.115,5.115,0,0,0-2-1.023,6.163,6.163,0,0,1-2.605-1.367,2.6,2.6,0,0,1-.582-2.336,2.88,2.88,0,0,1,1.277-2.059,4.66,4.66,0,0,1,2.668-.73,4.1,4.1,0,0,1,2.859.93,2.609,2.609,0,0,1,.742,2.547l-.016.047h-1.477a1.878,1.878,0,0,0-.477-1.668,2.421,2.421,0,0,0-1.82-.645,2.5,2.5,0,0,0-1.5.449,1.631,1.631,0,0,0-.715,1.113,1.6,1.6,0,0,0,.332,1.426,5.659,5.659,0,0,0,2.043,1.012,6.7,6.7,0,0,1,2.637,1.4,2.539,2.539,0,0,1,.574,2.3A2.857,2.857,0,0,1-41.957-.539a5.067,5.067,0,0,1-2.77.7A5.32,5.32,0,0,1-47.793-.68,2.409,2.409,0,0,1-48.727-3.3l.023-.047h1.469A1.64,1.64,0,0,0-46.6-1.57a3.707,3.707,0,0,0,2.055.531,2.832,2.832,0,0,0,1.578-.441A1.632,1.632,0,0,0-42.18-2.609Zm6.531-7.883-.3,2.039h1.6l-.172,1.141h-1.6l-.766,5.133a1.052,1.052,0,0,0,.113.848.793.793,0,0,0,.621.23,1.571,1.571,0,0,0,.3-.035,2.1,2.1,0,0,0,.285-.074l.055,1.055a1.634,1.634,0,0,1-.543.23,2.7,2.7,0,0,1-.676.09,1.735,1.735,0,0,1-1.395-.57,2.153,2.153,0,0,1-.3-1.773l.766-5.133h-1.344l.172-1.141h1.344l.3-2.039ZM-28.773,0q-.016-.438-.016-.707a4.986,4.986,0,0,1,.031-.551A4.564,4.564,0,0,1-30.035-.246a3.193,3.193,0,0,1-1.543.41A2.41,2.41,0,0,1-33.465-.52,2.155,2.155,0,0,1-33.9-2.375a2.584,2.584,0,0,1,1.25-1.914,5.194,5.194,0,0,1,2.773-.664H-28.2l.125-.836a1.369,1.369,0,0,0-.27-1.191A1.593,1.593,0,0,0-29.57-7.4a2.134,2.134,0,0,0-1.25.375,1.3,1.3,0,0,0-.609.9l-1.469.016-.008-.047a2.422,2.422,0,0,1,1.117-1.707A4.1,4.1,0,0,1-29.3-8.609a3.053,3.053,0,0,1,2.172.738,2.258,2.258,0,0,1,.594,2.1l-.609,4.07a6.686,6.686,0,0,0-.09.887A4.511,4.511,0,0,0-27.187,0Zm-2.383-1.125a3.032,3.032,0,0,0,1.547-.437,2.613,2.613,0,0,0,1.039-.984l.211-1.367h-1.727a2.54,2.54,0,0,0-1.547.477,1.651,1.651,0,0,0-.734,1.094,1.011,1.011,0,0,0,.207.9A1.341,1.341,0,0,0-31.156-1.125Zm11.047-5.969-.781-.047a1.9,1.9,0,0,0-1.062.3,2.49,2.49,0,0,0-.781.848L-23.633,0h-1.539l1.266-8.453h1.375l-.031,1.2a3.552,3.552,0,0,1,1.031-1,2.384,2.384,0,0,1,1.273-.355,1.923,1.923,0,0,1,.324.027,1.787,1.787,0,0,1,.254.059Zm4.383-3.4-.3,2.039h1.6L-14.6-7.312h-1.6l-.766,5.133a1.052,1.052,0,0,0,.113.848.793.793,0,0,0,.621.23,1.571,1.571,0,0,0,.3-.035,2.1,2.1,0,0,0,.285-.074l.055,1.055a1.634,1.634,0,0,1-.543.23,2.7,2.7,0,0,1-.676.09,1.735,1.735,0,0,1-1.395-.57,2.153,2.153,0,0,1-.3-1.773l.766-5.133h-1.344l.172-1.141h1.344l.3-2.039ZM-7.516-2.93H-11.8L-13.258,0h-1.57l5.8-11.375H-7.7L-5.391,0h-1.57Zm-3.648-1.289h3.4L-8.687-9.1l-.047-.008Zm10.75,3.18A2.076,2.076,0,0,0,.879-1.516,1.8,1.8,0,0,0,1.6-2.672H2.992l.016.047A2.885,2.885,0,0,1,1.785-.66,3.838,3.838,0,0,1-.594.164,2.837,2.837,0,0,1-3.121-1.059a4.112,4.112,0,0,1-.559-3l.047-.328A5.417,5.417,0,0,1-2.211-7.426,3.89,3.89,0,0,1,.719-8.609a2.769,2.769,0,0,1,2.164.883,2.407,2.407,0,0,1,.57,2.148l-.016.039H2.031a1.676,1.676,0,0,0-.3-1.332A1.429,1.429,0,0,0,.539-7.4,2.118,2.118,0,0,0-1.227-6.5a4.517,4.517,0,0,0-.859,2.113l-.047.328a3.852,3.852,0,0,0,.18,2.168A1.514,1.514,0,0,0-.414-1.039Zm8.57-9.453-.3,2.039h1.6L9.281-7.312H7.68L6.914-2.18a1.052,1.052,0,0,0,.113.848.793.793,0,0,0,.621.23,1.571,1.571,0,0,0,.3-.035,2.1,2.1,0,0,0,.285-.074L8.289-.156a1.634,1.634,0,0,1-.543.23,2.7,2.7,0,0,1-.676.09,1.735,1.735,0,0,1-1.395-.57,2.153,2.153,0,0,1-.3-1.773l.766-5.133H4.8l.172-1.141H6.313l.3-2.039ZM11.5,0H9.961l1.266-8.453h1.539Zm1.594-10.617H11.555l.234-1.57h1.539Zm3.969,8.125.047.594.047.008.234-.6,2.836-5.961H21.8L17.422,0H16.258L14.375-8.453h1.578ZM23.578,0H22.039L23.3-8.453h1.539Zm1.594-10.617H23.633l.234-1.57h1.539Zm4.484.125-.3,2.039h1.6l-.172,1.141h-1.6L28.414-2.18a1.052,1.052,0,0,0,.113.848.793.793,0,0,0,.621.23,1.571,1.571,0,0,0,.3-.035,2.1,2.1,0,0,0,.285-.074l.055,1.055a1.634,1.634,0,0,1-.543.23,2.7,2.7,0,0,1-.676.09,1.735,1.735,0,0,1-1.395-.57,2.153,2.153,0,0,1-.3-1.773l.766-5.133H26.3l.172-1.141h1.344l.3-2.039Zm4.734,7.359.117,1.063.047.008,3.031-6.391H39.3L34.281,1.3a5.491,5.491,0,0,1-1.145,1.484,2.434,2.434,0,0,1-1.707.633,3.175,3.175,0,0,1-.461-.043q-.281-.043-.437-.082l.336-1.211a2.066,2.066,0,0,1,.285.016q.309.023.395.023a1.159,1.159,0,0,0,.871-.457,5.115,5.115,0,0,0,.668-.949l.508-.883L31.688-8.453h1.719Zm5.594-1.484a11.684,11.684,0,0,1,1.965-5.316,8.782,8.782,0,0,1,3.027-2.848l.047.008.172.906a8.17,8.17,0,0,0-2.242,2.68,12.607,12.607,0,0,0-1.43,4.555l-.016.1a11.079,11.079,0,0,0,.129,4.6,6.02,6.02,0,0,0,1.5,2.7l-.414.844H42.68a5.9,5.9,0,0,1-2.207-2.9,9.705,9.705,0,0,1-.5-5.262Zm8.5.07A11.73,11.73,0,0,1,46.512.773a8.822,8.822,0,0,1-3.02,2.844l-.047-.008-.18-.836A8.091,8.091,0,0,0,45.5.074a12.974,12.974,0,0,0,1.445-4.605l.016-.1A10.855,10.855,0,0,0,46.8-9.238a6.226,6.226,0,0,0-1.469-2.7l.414-.844h.047a5.924,5.924,0,0,1,2.2,2.906A9.745,9.745,0,0,1,48.5-4.617Z" transform="translate(577 1301)" fill="#fff"/>
    <path id="Trazado_904549" data-name="Trazado 904549" d="M-5224,19192s-122-142.666-177-114.666-91,148-91,148" transform="translate(6321 -17913)" fill="none" stroke="#8722e2" stroke-width="2" stroke-dasharray="5"/>
    <path id="Trazado_905122" data-name="Trazado 905122" d="M9,0H154a9,9,0,0,1,9,9V64a9,9,0,0,1-9,9H9a9,9,0,0,1-9-9V9A9,9,0,0,1,9,0Z" transform="translate(810 1139)" fill="#3a1d71"/>
    <path id="Trazado_905124" data-name="Trazado 905124" d="M-18.527,0h-1.547l1.7-11.375h1.547Zm5.18-7.242a3.653,3.653,0,0,1,1.207-1.012,3.241,3.241,0,0,1,1.5-.355A2.384,2.384,0,0,1-8.664-7.8a3.111,3.111,0,0,1,.4,2.465L-9.059,0H-10.6l.8-5.3A2.11,2.11,0,0,0-10-6.91a1.585,1.585,0,0,0-1.289-.449,2.518,2.518,0,0,0-1.234.3,2.729,2.729,0,0,0-.922.832L-14.379,0h-1.539l1.266-8.453h1.375Zm10.234-3.25-.3,2.039h1.6l-.172,1.141h-1.6L-4.355-2.18a1.052,1.052,0,0,0,.113.848.793.793,0,0,0,.621.23,1.571,1.571,0,0,0,.3-.035,2.1,2.1,0,0,0,.285-.074L-2.98-.156a1.634,1.634,0,0,1-.543.23A2.7,2.7,0,0,1-4.2.164a1.735,1.735,0,0,1-1.395-.57,2.153,2.153,0,0,1-.3-1.773l.766-5.133H-6.473L-6.3-8.453h1.344l.3-2.039ZM2.043.164A3.069,3.069,0,0,1-.586-1.016a3.934,3.934,0,0,1-.6-3.047l.055-.344A5.061,5.061,0,0,1,.359-7.453,3.89,3.89,0,0,1,3.113-8.609a2.624,2.624,0,0,1,2.352,1.07A3.846,3.846,0,0,1,5.926-4.75l-.117.813H.34A3.355,3.355,0,0,0,.605-1.816a1.7,1.7,0,0,0,1.617.777,4.177,4.177,0,0,0,1.395-.227A3.661,3.661,0,0,0,4.73-1.875l.453,1a4.447,4.447,0,0,1-1.3.738A5.139,5.139,0,0,1,2.043.164ZM2.934-7.4a1.948,1.948,0,0,0-1.4.625A3.561,3.561,0,0,0,.629-5.2l.016.047h3.8l.016-.125a2.257,2.257,0,0,0-.219-1.535A1.41,1.41,0,0,0,2.934-7.4Zm6.578.156a3.653,3.653,0,0,1,1.207-1.012,3.241,3.241,0,0,1,1.5-.355A2.384,2.384,0,0,1,14.2-7.8a3.111,3.111,0,0,1,.4,2.465L13.8,0H12.262l.8-5.3a2.11,2.11,0,0,0-.2-1.605,1.585,1.585,0,0,0-1.289-.449,2.518,2.518,0,0,0-1.234.3,2.729,2.729,0,0,0-.922.832L8.48,0H6.941L8.207-8.453H9.582Zm10.234-3.25-.3,2.039h1.6l-.172,1.141h-1.6L18.5-2.18a1.052,1.052,0,0,0,.113.848.793.793,0,0,0,.621.23,1.571,1.571,0,0,0,.3-.035,2.1,2.1,0,0,0,.285-.074l.055,1.055a1.634,1.634,0,0,1-.543.23,2.7,2.7,0,0,1-.676.09,1.735,1.735,0,0,1-1.395-.57,2.153,2.153,0,0,1-.3-1.773l.766-5.133H16.387l.172-1.141H17.9l.3-2.039Z" transform="translate(892 1181)" fill="#fff"/>
    <path id="Trazado_905117" data-name="Trazado 905117" d="M9,0H154a9,9,0,0,1,9,9V64a9,9,0,0,1-9,9H9a9,9,0,0,1-9-9V9A9,9,0,0,1,9,0Z" transform="translate(942 1252)" fill="#3a1d71"/>
    <path id="Trazado_905118" data-name="Trazado 905118" d="M-28.5-4.672a5.733,5.733,0,0,1-1.812,3.5A5.132,5.132,0,0,1-33.879.164a3.575,3.575,0,0,1-3-1.387,4.337,4.337,0,0,1-.762-3.449l.3-2.023a5.782,5.782,0,0,1,1.758-3.5,4.886,4.886,0,0,1,3.453-1.34,3.767,3.767,0,0,1,3.1,1.395A4.257,4.257,0,0,1-28.2-6.7Zm-1.234-2.039a3.493,3.493,0,0,0-.453-2.59,2.425,2.425,0,0,0-2.125-.973,3.07,3.07,0,0,0-2.27,1.012,4.5,4.5,0,0,0-1.207,2.551l-.3,2.039a3.608,3.608,0,0,0,.4,2.605,2.244,2.244,0,0,0,2.008.973A3.283,3.283,0,0,0-31.3-2.1a4.477,4.477,0,0,0,1.258-2.57Zm5.109-.531a3.653,3.653,0,0,1,1.207-1.012,3.241,3.241,0,0,1,1.5-.355,2.384,2.384,0,0,1,1.973.809,3.111,3.111,0,0,1,.4,2.465L-20.34,0h-1.539l.8-5.3a2.11,2.11,0,0,0-.2-1.605,1.585,1.585,0,0,0-1.289-.449,2.518,2.518,0,0,0-1.234.3,2.729,2.729,0,0,0-.922.832L-25.66,0H-27.2l1.266-8.453h1.375Zm15.391,3.6.016.047A4.027,4.027,0,0,1-10.746-.883,4.979,4.979,0,0,1-13.965.164a3.446,3.446,0,0,1-2.9-1.379,4.374,4.374,0,0,1-.73-3.457l.3-2.023a5.839,5.839,0,0,1,1.727-3.512,4.715,4.715,0,0,1,3.359-1.332A3.859,3.859,0,0,1-9.328-10.5,2.951,2.951,0,0,1-8.59-7.789l-.023.047H-10.09A2.277,2.277,0,0,0-10.5-9.656a2.4,2.4,0,0,0-1.891-.672,2.872,2.872,0,0,0-2.184,1.051,4.789,4.789,0,0,0-1.176,2.566l-.3,2.039A3.844,3.844,0,0,0-15.7-2.047a2.075,2.075,0,0,0,1.914,1.008,3.087,3.087,0,0,0,2.063-.7,3,3,0,0,0,1.016-1.9ZM-2.91-7.094l-.781-.047a1.9,1.9,0,0,0-1.062.3,2.49,2.49,0,0,0-.781.848L-6.434,0H-7.973l1.266-8.453h1.375l-.031,1.2a3.552,3.552,0,0,1,1.031-1,2.384,2.384,0,0,1,1.273-.355,1.923,1.923,0,0,1,.324.027,1.787,1.787,0,0,1,.254.059ZM.957.164a3.069,3.069,0,0,1-2.629-1.18,3.934,3.934,0,0,1-.6-3.047l.055-.344A5.061,5.061,0,0,1-.727-7.453,3.89,3.89,0,0,1,2.027-8.609a2.624,2.624,0,0,1,2.352,1.07A3.846,3.846,0,0,1,4.84-4.75l-.117.813H-.746A3.355,3.355,0,0,0-.48-1.816a1.7,1.7,0,0,0,1.617.777,4.177,4.177,0,0,0,1.395-.227,3.661,3.661,0,0,0,1.113-.609l.453,1a4.447,4.447,0,0,1-1.3.738A5.139,5.139,0,0,1,.957.164ZM1.848-7.4a1.948,1.948,0,0,0-1.4.625A3.561,3.561,0,0,0-.457-5.2l.016.047h3.8l.016-.125A2.257,2.257,0,0,0,3.16-6.809,1.41,1.41,0,0,0,1.848-7.4Zm9.2,7.4q-.016-.438-.016-.707a4.986,4.986,0,0,1,.031-.551A4.564,4.564,0,0,1,9.789-.246a3.193,3.193,0,0,1-1.543.41A2.41,2.41,0,0,1,6.359-.52a2.155,2.155,0,0,1-.434-1.855,2.584,2.584,0,0,1,1.25-1.914,5.194,5.194,0,0,1,2.773-.664h1.672l.125-.836a1.369,1.369,0,0,0-.27-1.191A1.593,1.593,0,0,0,10.254-7.4,2.134,2.134,0,0,0,9-7.023a1.3,1.3,0,0,0-.609.9l-1.469.016-.008-.047A2.422,2.422,0,0,1,8.035-7.863a4.1,4.1,0,0,1,2.484-.746,3.053,3.053,0,0,1,2.172.738,2.258,2.258,0,0,1,.594,2.1L12.676-1.7a6.686,6.686,0,0,0-.09.887A4.511,4.511,0,0,0,12.637,0ZM8.668-1.125a3.032,3.032,0,0,0,1.547-.437,2.613,2.613,0,0,0,1.039-.984l.211-1.367H9.738a2.54,2.54,0,0,0-1.547.477,1.651,1.651,0,0,0-.734,1.094,1.011,1.011,0,0,0,.207.9A1.341,1.341,0,0,0,8.668-1.125Zm9.7-9.367-.3,2.039h1.6l-.172,1.141h-1.6L17.121-2.18a1.052,1.052,0,0,0,.113.848.793.793,0,0,0,.621.23,1.571,1.571,0,0,0,.3-.035,2.1,2.1,0,0,0,.285-.074L18.5-.156a1.634,1.634,0,0,1-.543.23,2.7,2.7,0,0,1-.676.09,1.735,1.735,0,0,1-1.395-.57,2.153,2.153,0,0,1-.3-1.773l.766-5.133H15l.172-1.141H16.52l.3-2.039ZM23.52.164a3.069,3.069,0,0,1-2.629-1.18,3.934,3.934,0,0,1-.6-3.047l.055-.344a5.061,5.061,0,0,1,1.488-3.047A3.89,3.89,0,0,1,24.59-8.609a2.624,2.624,0,0,1,2.352,1.07A3.846,3.846,0,0,1,27.4-4.75l-.117.813H21.816a3.355,3.355,0,0,0,.266,2.121,1.7,1.7,0,0,0,1.617.777,4.177,4.177,0,0,0,1.395-.227,3.661,3.661,0,0,0,1.113-.609l.453,1a4.447,4.447,0,0,1-1.3.738A5.139,5.139,0,0,1,23.52.164ZM24.41-7.4a1.948,1.948,0,0,0-1.4.625,3.561,3.561,0,0,0-.9,1.578l.016.047h3.8l.016-.125a2.257,2.257,0,0,0-.219-1.535A1.41,1.41,0,0,0,24.41-7.4ZM29.02-4.617a11.684,11.684,0,0,1,1.965-5.316,8.782,8.782,0,0,1,3.027-2.848l.047.008.172.906a8.17,8.17,0,0,0-2.242,2.68,12.607,12.607,0,0,0-1.43,4.555l-.016.1a11.079,11.079,0,0,0,.129,4.6,6.02,6.02,0,0,0,1.5,2.7l-.414.844h-.047a5.9,5.9,0,0,1-2.207-2.9A9.705,9.705,0,0,1,29-4.547Zm8.5.07A11.73,11.73,0,0,1,35.547.773a8.822,8.822,0,0,1-3.02,2.844l-.047-.008-.18-.836a8.091,8.091,0,0,0,2.234-2.7A12.974,12.974,0,0,0,35.98-4.531l.016-.1a10.855,10.855,0,0,0-.164-4.605,6.226,6.226,0,0,0-1.469-2.7l.414-.844h.047a5.924,5.924,0,0,1,2.2,2.906,9.745,9.745,0,0,1,.512,5.258Z" transform="translate(1024 1294)" fill="#fff"/>
    <path id="Trazado_905119" data-name="Trazado 905119" d="M7.5,0,15,13H0Z" transform="translate(786.332 1319.625) rotate(159)" fill="#8722e2"/>
    <path id="Trazado_905120" data-name="Trazado 905120" d="M7.5,0,15,13H0Z" transform="matrix(-0.927, -0.375, 0.375, -0.927, 832.519, 1325.082)" fill="#8722e2"/>
    <path id="Trazado_905112" data-name="Trazado 905112" d="M8.5,0,17,30H0Z" transform="translate(610 1454)" fill="#760ed3"/>
    <path id="Trazado_905110" data-name="Trazado 905110" d="M8.5,0,17,30H0Z" transform="translate(792 1454)" fill="#760ed3"/>
    <path id="Trazado_905102" data-name="Trazado 905102" d="M8.5,0,17,30H0Z" transform="translate(990 1454)" fill="#760ed3"/>
  </g>
</svg>
